<svg width="228" height="84" viewBox="0 0 228 84" fill="none" xmlns="http://www.w3.org/2000/svg">
<path d="M60.26 8.54545H67.879L74.342 24.3054H74.6403L81.1034 8.54545H88.7223V34H82.7316V18.3643H82.5203L76.4052 33.8384H72.5771L66.462 18.2773H66.2508V34H60.26V8.54545ZM96.2761 41.1591C95.5469 41.1591 94.8592 41.1011 94.2128 40.9851C93.5665 40.8774 93.0114 40.7324 92.5474 40.5501L93.8897 36.1378C94.4863 36.3366 95.0249 36.4527 95.5055 36.4858C95.9943 36.5189 96.4128 36.4402 96.7608 36.2496C97.1171 36.0674 97.3905 35.7401 97.5811 35.2678L97.8172 34.696L91.031 14.9091H97.3947L100.912 28.5312H101.111L104.678 14.9091H111.079L103.883 35.8271C103.535 36.8711 103.042 37.7908 102.404 38.5863C101.774 39.39 100.958 40.0198 99.955 40.4755C98.9607 40.9312 97.7344 41.1591 96.2761 41.1591ZM136.515 17.7678H130.3C130.218 17.1297 130.048 16.5539 129.791 16.0401C129.534 15.5264 129.194 15.0872 128.772 14.7227C128.349 14.3581 127.848 14.0805 127.268 13.8899C126.696 13.6911 126.062 13.5916 125.366 13.5916C124.131 13.5916 123.067 13.8941 122.172 14.4989C121.285 15.1038 120.602 15.978 120.121 17.1214C119.649 18.2649 119.413 19.6487 119.413 21.2727C119.413 22.9631 119.653 24.38 120.133 25.5234C120.622 26.6586 121.306 27.5162 122.184 28.0962C123.071 28.668 124.119 28.9538 125.329 28.9538C126.008 28.9538 126.626 28.8668 127.181 28.6928C127.744 28.5188 128.237 28.2661 128.66 27.9347C129.091 27.5949 129.443 27.1848 129.716 26.7042C129.998 26.2153 130.193 25.6643 130.3 25.0511L136.515 25.0884C136.407 26.2153 136.08 27.3256 135.533 28.4194C134.994 29.5131 134.253 30.5116 133.308 31.4148C132.364 32.3097 131.212 33.0223 129.853 33.5526C128.502 34.0829 126.953 34.348 125.205 34.348C122.901 34.348 120.838 33.8426 119.015 32.8317C117.2 31.8125 115.767 30.3293 114.714 28.3821C113.662 26.4349 113.136 24.0651 113.136 21.2727C113.136 18.4721 113.67 16.0981 114.739 14.1509C115.808 12.2037 117.254 10.7247 119.077 9.71378C120.9 8.70289 122.942 8.19744 125.205 8.19744C126.746 8.19744 128.171 8.41288 129.48 8.84375C130.789 9.26633 131.941 9.88778 132.935 10.7081C133.93 11.5201 134.738 12.5186 135.359 13.7035C135.98 14.8884 136.366 16.2431 136.515 17.7678ZM148.947 34.3604C146.942 34.3604 145.218 33.9503 143.777 33.13C142.343 32.3014 141.237 31.1496 140.458 29.6747C139.687 28.1915 139.302 26.4722 139.302 24.5167C139.302 22.5529 139.687 20.8336 140.458 19.3587C141.237 17.8755 142.343 16.7237 143.777 15.9034C145.218 15.0748 146.942 14.6605 148.947 14.6605C150.952 14.6605 152.672 15.0748 154.105 15.9034C155.547 16.7237 156.653 17.8755 157.424 19.3587C158.202 20.8336 158.592 22.5529 158.592 24.5167C158.592 26.4722 158.202 28.1915 157.424 29.6747C156.653 31.1496 155.547 32.3014 154.105 33.13C152.672 33.9503 150.952 34.3604 148.947 34.3604ZM148.984 29.7741C149.713 29.7741 150.331 29.5504 150.836 29.103C151.342 28.6555 151.727 28.0341 151.992 27.2386C152.265 26.4432 152.402 25.5234 152.402 24.4794C152.402 23.4188 152.265 22.4908 151.992 21.6953C151.727 20.8999 151.342 20.2784 150.836 19.831C150.331 19.3835 149.713 19.1598 148.984 19.1598C148.23 19.1598 147.592 19.3835 147.07 19.831C146.556 20.2784 146.163 20.8999 145.889 21.6953C145.624 22.4908 145.492 23.4188 145.492 24.4794C145.492 25.5234 145.624 26.4432 145.889 27.2386C146.163 28.0341 146.556 28.6555 147.07 29.103C147.592 29.5504 148.23 29.7741 148.984 29.7741ZM167.783 23.1122V34H161.705V14.9091H167.485V18.4141H167.696C168.119 17.2457 168.84 16.3301 169.859 15.6673C170.878 14.9961 172.092 14.6605 173.5 14.6605C174.843 14.6605 176.007 14.9629 176.993 15.5678C177.987 16.1644 178.758 17.0013 179.305 18.0785C179.86 19.1474 180.133 20.3986 180.125 21.832V34H174.047V23.0252C174.056 21.9646 173.786 21.136 173.239 20.5394C172.701 19.9428 171.951 19.6445 170.99 19.6445C170.352 19.6445 169.788 19.7854 169.299 20.0671C168.819 20.3406 168.446 20.7341 168.181 21.2479C167.924 21.7616 167.791 22.383 167.783 23.1122ZM194.664 14.9091V19.3835H182.62V14.9091H194.664ZM185.143 10.3352H191.221V27.9968C191.221 28.3697 191.279 28.6721 191.395 28.9041C191.519 29.1278 191.697 29.2894 191.929 29.3888C192.161 29.48 192.439 29.5256 192.762 29.5256C192.994 29.5256 193.239 29.5049 193.496 29.4634C193.761 29.4137 193.96 29.3723 194.092 29.3391L195.012 33.7266C194.722 33.8094 194.312 33.913 193.781 34.0373C193.259 34.1616 192.634 34.2403 191.905 34.2734C190.479 34.3397 189.257 34.174 188.238 33.7763C187.227 33.3703 186.452 32.7405 185.914 31.8871C185.384 31.0336 185.127 29.9606 185.143 28.668V10.3352ZM206.471 34.3604C204.466 34.3604 202.743 33.9503 201.301 33.13C199.867 32.3014 198.761 31.1496 197.982 29.6747C197.212 28.1915 196.826 26.4722 196.826 24.5167C196.826 22.5529 197.212 20.8336 197.982 19.3587C198.761 17.8755 199.867 16.7237 201.301 15.9034C202.743 15.0748 204.466 14.6605 206.471 14.6605C208.477 14.6605 210.196 15.0748 211.629 15.9034C213.071 16.7237 214.177 17.8755 214.948 19.3587C215.727 20.8336 216.116 22.5529 216.116 24.5167C216.116 26.4722 215.727 28.1915 214.948 29.6747C214.177 31.1496 213.071 32.3014 211.629 33.13C210.196 33.9503 208.477 34.3604 206.471 34.3604ZM206.509 29.7741C207.238 29.7741 207.855 29.5504 208.361 29.103C208.866 28.6555 209.251 28.0341 209.516 27.2386C209.79 26.4432 209.927 25.5234 209.927 24.4794C209.927 23.4188 209.79 22.4908 209.516 21.6953C209.251 20.8999 208.866 20.2784 208.361 19.831C207.855 19.3835 207.238 19.1598 206.509 19.1598C205.755 19.1598 205.117 19.3835 204.595 19.831C204.081 20.2784 203.687 20.8999 203.414 21.6953C203.149 22.4908 203.016 23.4188 203.016 24.4794C203.016 25.5234 203.149 26.4432 203.414 27.2386C203.687 28.0341 204.081 28.6555 204.595 29.103C205.117 29.5504 205.755 29.7741 206.509 29.7741ZM225.307 8.54545V34H219.23V8.54545H225.307ZM83.3655 59.7678H77.151C77.0681 59.1297 76.8982 58.5539 76.6414 58.0401C76.3845 57.5264 76.0448 57.0872 75.6222 56.7227C75.1996 56.3581 74.6983 56.0805 74.1183 55.8899C73.5466 55.6911 72.9127 55.5916 72.2167 55.5916C70.9821 55.5916 69.9173 55.8941 69.0224 56.4989C68.1358 57.1038 67.4522 57.978 66.9716 59.1214C66.4993 60.2649 66.2632 61.6487 66.2632 63.2727C66.2632 64.9631 66.5035 66.38 66.9841 67.5234C67.4729 68.6586 68.1565 69.5162 69.0348 70.0962C69.9214 70.668 70.9696 70.9538 72.1794 70.9538C72.8588 70.9538 73.4761 70.8668 74.0313 70.6928C74.5947 70.5188 75.0878 70.2661 75.5103 69.9347C75.9412 69.5949 76.2934 69.1848 76.5668 68.7042C76.8485 68.2153 77.0432 67.6643 77.151 67.0511L83.3655 67.0884C83.2577 68.2153 82.9304 69.3256 82.3836 70.4194C81.845 71.5131 81.1034 72.5116 80.1588 73.4148C79.2142 74.3097 78.0624 75.0223 76.7035 75.5526C75.3529 76.0829 73.8034 76.348 72.0551 76.348C69.7516 76.348 67.6884 75.8426 65.8655 74.8317C64.0508 73.8125 62.6174 72.3293 61.565 70.3821C60.5127 68.4349 59.9866 66.0651 59.9866 63.2727C59.9866 60.4721 60.521 58.0981 61.5899 56.1509C62.6588 54.2037 64.1047 52.7247 65.9276 51.7138C67.7505 50.7029 69.793 50.1974 72.0551 50.1974C73.5963 50.1974 75.0215 50.4129 76.3307 50.8438C77.6398 51.2663 78.7916 51.8878 79.7859 52.7081C80.7802 53.5201 81.5881 54.5186 82.2096 55.7035C82.831 56.8884 83.2163 58.2431 83.3655 59.7678ZM92.2677 76.3232C91.0497 76.3232 89.9684 76.1201 89.0237 75.7141C88.0874 75.2998 87.3458 74.6784 86.799 73.8498C86.2604 73.0129 85.9911 71.9647 85.9911 70.7053C85.9911 69.6446 86.1775 68.7498 86.5504 68.0206C86.9233 67.2914 87.437 66.699 88.0916 66.2433C88.7462 65.7875 89.5002 65.4437 90.3536 65.2116C91.2071 64.9714 92.1186 64.8098 93.088 64.7269C94.1735 64.6275 95.0477 64.5239 95.7105 64.4162C96.3734 64.3002 96.854 64.1386 97.1523 63.9315C97.4589 63.716 97.6122 63.4136 97.6122 63.0241V62.962C97.6122 62.324 97.3926 61.831 96.9534 61.483C96.5143 61.1349 95.9218 60.9609 95.1761 60.9609C94.3724 60.9609 93.726 61.1349 93.2372 61.483C92.7483 61.831 92.4376 62.3116 92.305 62.9247L86.6995 62.7259C86.8652 61.5658 87.292 60.5301 87.9797 59.6186C88.6757 58.6989 89.6286 57.978 90.8384 57.456C92.0564 56.9257 93.5189 56.6605 95.2258 56.6605C96.4438 56.6605 97.5666 56.8055 98.5941 57.0955C99.6215 57.3772 100.516 57.7915 101.279 58.3384C102.041 58.877 102.629 59.5399 103.044 60.3271C103.466 61.1142 103.678 62.0133 103.678 63.0241V76H97.9602V73.3402H97.811C97.4713 73.9865 97.0363 74.5334 96.506 74.9808C95.984 75.4283 95.3667 75.7638 94.6541 75.9876C93.9498 76.2113 93.1543 76.3232 92.2677 76.3232ZM94.1445 72.3459C94.7991 72.3459 95.3874 72.2133 95.9094 71.9482C96.4397 71.683 96.8623 71.3184 97.1772 70.8544C97.492 70.3821 97.6495 69.8352 97.6495 69.2138V67.3991C97.4755 67.4903 97.2642 67.5732 97.0156 67.6477C96.7753 67.7223 96.5101 67.7927 96.2201 67.859C95.9301 67.9253 95.6318 67.9833 95.3252 68.033C95.0187 68.0827 94.7245 68.1283 94.4428 68.1697C93.871 68.2609 93.3822 68.4018 92.9762 68.5923C92.5784 68.7829 92.2719 69.0315 92.0564 69.3381C91.8493 69.6364 91.7457 69.9927 91.7457 70.407C91.7457 71.0367 91.9694 71.5173 92.4169 71.8487C92.8726 72.1802 93.4485 72.3459 94.1445 72.3459ZM124.061 62.7383L118.48 62.8874C118.422 62.4897 118.265 62.1375 118.008 61.831C117.751 61.5161 117.416 61.2717 117.001 61.0977C116.595 60.9154 116.123 60.8242 115.584 60.8242C114.88 60.8242 114.279 60.9651 113.782 61.2468C113.293 61.5285 113.053 61.9097 113.061 62.3903C113.053 62.7631 113.202 63.0863 113.509 63.3597C113.824 63.6332 114.383 63.8527 115.187 64.0185L118.866 64.7145C120.771 65.0791 122.188 65.6839 123.116 66.5291C124.053 67.3743 124.525 68.4929 124.533 69.8849C124.525 71.1941 124.136 72.3335 123.365 73.3029C122.603 74.2724 121.559 75.0264 120.233 75.565C118.907 76.0953 117.391 76.3604 115.684 76.3604C112.958 76.3604 110.808 75.8011 109.233 74.6825C107.667 73.5556 106.772 72.0476 106.549 70.1584L112.552 70.0092C112.684 70.7053 113.028 71.2356 113.583 71.6001C114.139 71.9647 114.847 72.147 115.709 72.147C116.488 72.147 117.122 72.002 117.61 71.712C118.099 71.422 118.348 71.0367 118.356 70.5561C118.348 70.1252 118.157 69.7814 117.784 69.5245C117.412 69.2594 116.827 69.0522 116.032 68.9031L112.701 68.2692C110.787 67.9212 109.362 67.279 108.425 66.3427C107.489 65.3981 107.025 64.1966 107.033 62.7383C107.025 61.4622 107.365 60.3726 108.053 59.4695C108.74 58.558 109.718 57.862 110.986 57.3814C112.254 56.9008 113.749 56.6605 115.473 56.6605C118.058 56.6605 120.096 57.2032 121.588 58.2887C123.079 59.3659 123.904 60.8491 124.061 62.7383ZM133.603 65.1122V76H127.526V50.5455H133.405V60.4141H133.616C134.047 59.2375 134.751 58.3177 135.729 57.6548C136.715 56.992 137.92 56.6605 139.346 56.6605C140.688 56.6605 141.856 56.9588 142.851 57.5554C143.845 58.1437 144.615 58.9764 145.162 60.0536C145.717 61.1308 145.991 62.3903 145.983 63.832V76H139.905V65.0252C139.913 63.9646 139.648 63.136 139.109 62.5394C138.571 61.9428 137.813 61.6445 136.835 61.6445C136.197 61.6445 135.633 61.7854 135.145 62.0671C134.664 62.3406 134.287 62.7341 134.014 63.2479C133.748 63.7616 133.612 64.383 133.603 65.1122Z" fill="#2B2B2B"/>
<path d="M17.6667 39.3333C10.1 37.3667 7.66667 35.3333 7.66667 32.1667C7.66667 28.5333 11.0333 26 16.6667 26C21.4 26 23.7667 27.8 24.6333 30.6667C25.0333 32 26.1333 33 27.5333 33H28.5333C30.7333 33 32.3 30.8333 31.5333 28.7667C30.1333 24.8333 26.8667 21.5667 21.6667 20.3V18C21.6667 15.2333 19.4333 13 16.6667 13C13.9 13 11.6667 15.2333 11.6667 18V20.2C5.2 21.6 0 25.8 0 32.2333C0 39.9333 6.36666 43.7667 15.6667 46C24 48 25.6667 50.9333 25.6667 54.0333C25.6667 56.3333 24.0333 60 16.6667 60C11.1667 60 8.33333 58.0333 7.23333 55.2333C6.73333 53.9333 5.6 53 4.23333 53H3.3C1.06667 53 -0.5 55.2667 0.333333 57.3333C2.23333 61.9667 6.66667 64.7 11.6667 65.7667V68C11.6667 70.7667 13.9 73 16.6667 73C19.4333 73 21.6667 70.7667 21.6667 68V65.8333C28.1667 64.6 33.3333 60.8333 33.3333 54C33.3333 44.5333 25.2333 41.3 17.6667 39.3333Z" fill="#20AC7A"/>
</svg>
